<svg width="217" height="190" viewBox="0 0 217 190" fill="none" xmlns="http://www.w3.org/2000/svg">
<g filter="url(#filter0_f_275_48)">
<path d="M172.892 138.332C168.854 117.5 150.518 101.777 128.496 101.777C106.474 101.777 88.1376 117.5 84.0991 138.332C83.2235 142.828 86.7783 146.997 91.3526 146.997H165.626C170.213 146.997 173.755 142.841 172.879 138.332H172.892Z" fill="url(#paint0_linear_275_48)"/>
<path d="M128.496 91.152C140.896 91.152 150.949 81.0994 150.949 68.6988C150.949 56.2982 140.896 46.2456 128.496 46.2456C116.095 46.2456 106.043 56.2982 106.043 68.6988C106.043 81.0994 116.095 91.152 128.496 91.152Z" fill="url(#paint1_linear_275_48)"/>
</g>
<path d="M172.892 123.332C168.854 102.5 150.517 86.7773 128.496 86.7773C106.474 86.7773 88.1373 102.5 84.0989 123.332C83.2232 127.828 86.7781 131.997 91.3524 131.997H165.626C170.213 131.997 173.755 127.841 172.879 123.332H172.892Z" fill="url(#paint2_linear_275_48)"/>
<path d="M128.496 76.152C140.896 76.152 150.949 66.0994 150.949 53.6988C150.949 41.2982 140.896 31.2456 128.496 31.2456C116.095 31.2456 106.042 41.2982 106.042 53.6988C106.042 66.0994 116.095 76.152 128.496 76.152Z" fill="url(#paint3_linear_275_48)"/>
<g filter="url(#filter1_b_275_48)">
<path d="M111.492 121.137C106.421 95.0242 83.4324 75.3025 55.8299 75.3025C28.2273 75.3025 5.23829 95.0242 0.167368 121.137C-0.930461 126.783 3.51313 131.998 9.26366 131.998H102.383C108.134 131.998 112.577 126.783 111.479 121.137H111.492Z" fill="url(#paint4_linear_275_48)"/>
<path d="M55.8299 75.5525C83.2054 75.5525 106.023 95.0374 111.188 120.887H111.176L111.234 121.185C112.301 126.671 107.982 131.748 102.383 131.748H9.26366C3.66476 131.748 -0.653992 126.671 0.412771 121.185L0.412783 121.185C5.46133 95.1871 28.3493 75.5525 55.8299 75.5525Z" stroke="url(#paint5_linear_275_48)" stroke-width="0.5"/>
</g>
<g filter="url(#filter2_b_275_48)">
<path d="M62.2753 61.2355C77.4001 57.6657 86.7674 42.5107 83.1976 27.3858C79.6278 12.261 64.4728 2.89379 49.348 6.46358C34.2231 10.0334 24.8559 25.1883 28.4257 40.3132C31.9955 55.438 47.1505 64.8052 62.2753 61.2355Z" fill="url(#paint6_linear_275_48)"/>
<path d="M82.9543 27.4433C86.4923 42.4337 77.2083 57.4541 62.2179 60.9921C47.2274 64.5302 32.2071 55.2462 28.669 40.2558C25.1309 25.2653 34.4149 10.245 49.4054 6.70689C64.3959 3.16882 79.4162 12.4528 82.9543 27.4433Z" stroke="url(#paint7_linear_275_48)" stroke-width="0.5"/>
</g>
<defs>
<filter id="filter0_f_275_48" x="40.9658" y="3.24561" width="175.047" height="186.752" filterUnits="userSpaceOnUse" color-interpolation-filters="sRGB">
<feFlood flood-opacity="0" result="BackgroundImageFix"/>
<feBlend mode="normal" in="SourceGraphic" in2="BackgroundImageFix" result="shape"/>
<feGaussianBlur stdDeviation="21.5" result="effect1_foregroundBlur_275_48"/>
</filter>
<filter id="filter1_b_275_48" x="-18.0001" y="57.3025" width="147.647" height="92.6951" filterUnits="userSpaceOnUse" color-interpolation-filters="sRGB">
<feFlood flood-opacity="0" result="BackgroundImageFix"/>
<feGaussianBlur in="BackgroundImageFix" stdDeviation="9"/>
<feComposite in2="SourceAlpha" operator="in" result="effect1_backgroundBlur_275_48"/>
<feBlend mode="normal" in="SourceGraphic" in2="effect1_backgroundBlur_275_48" result="shape"/>
</filter>
<filter id="filter2_b_275_48" x="9.66699" y="-12.2952" width="92.2893" height="92.2893" filterUnits="userSpaceOnUse" color-interpolation-filters="sRGB">
<feFlood flood-opacity="0" result="BackgroundImageFix"/>
<feGaussianBlur in="BackgroundImageFix" stdDeviation="9"/>
<feComposite in2="SourceAlpha" operator="in" result="effect1_backgroundBlur_275_48"/>
<feBlend mode="normal" in="SourceGraphic" in2="effect1_backgroundBlur_275_48" result="shape"/>
</filter>
<linearGradient id="paint0_linear_275_48" x1="128.496" y1="171.882" x2="128.496" y2="35.9206" gradientUnits="userSpaceOnUse">
<stop stop-color="#1F806E"/>
<stop offset="1" stop-color="#F7CBAD"/>
</linearGradient>
<linearGradient id="paint1_linear_275_48" x1="128.496" y1="-543.51" x2="128.496" y2="35.9208" gradientUnits="userSpaceOnUse">
<stop stop-color="#1F806E"/>
<stop offset="1" stop-color="#F7CBAD"/>
</linearGradient>
<linearGradient id="paint2_linear_275_48" x1="128.496" y1="156.882" x2="128.496" y2="20.9206" gradientUnits="userSpaceOnUse">
<stop stop-color="#1F806E"/>
<stop offset="1" stop-color="#F7CBAD"/>
</linearGradient>
<linearGradient id="paint3_linear_275_48" x1="128.496" y1="-558.51" x2="128.496" y2="20.9208" gradientUnits="userSpaceOnUse">
<stop stop-color="#1F806E"/>
<stop offset="1" stop-color="#F7CBAD"/>
</linearGradient>
<linearGradient id="paint4_linear_275_48" x1="6.30299" y1="128.797" x2="46.9104" y2="48.8304" gradientUnits="userSpaceOnUse">
<stop stop-color="white" stop-opacity="0.2"/>
<stop offset="1" stop-color="white" stop-opacity="0.49"/>
</linearGradient>
<linearGradient id="paint5_linear_275_48" x1="7.8809" y1="79.7614" x2="44.6936" y2="157.274" gradientUnits="userSpaceOnUse">
<stop stop-color="white"/>
<stop offset="1" stop-color="white" stop-opacity="0"/>
</linearGradient>
<linearGradient id="paint6_linear_275_48" x1="37.2517" y1="63.8771" x2="74.3715" y2="3.82192" gradientUnits="userSpaceOnUse">
<stop stop-color="white" stop-opacity="0.2"/>
<stop offset="1" stop-color="white" stop-opacity="0.49"/>
</linearGradient>
<linearGradient id="paint7_linear_275_48" x1="26.845" y1="16.3224" x2="84.1833" y2="54.4702" gradientUnits="userSpaceOnUse">
<stop stop-color="white"/>
<stop offset="1" stop-color="white" stop-opacity="0"/>
</linearGradient>
</defs>
</svg>
